<svg version="1.1" id="Layer_1" xmlns="http://www.w3.org/2000/svg" xmlns:xlink="http://www.w3.org/1999/xlink" x="0px" y="0px"
	 width="100%" viewBox="0 0 1024 1024" enable-background="new 0 0 1024 1024" xml:space="preserve">
<path fill="currentColor" opacity="1.000000" stroke="none" 
	d="
M376.531738,1.000000 
	C377.123199,2.654592 377.347076,4.308710 377.354889,5.963845 
	C377.564484,50.455627 377.787476,94.947418 377.913696,139.439468 
	C377.939667,148.598587 377.680603,157.761856 377.367432,166.916855 
	C377.252197,170.284760 378.560333,172.006226 381.731476,173.137299 
	C398.688843,179.185699 407.935913,191.724518 409.911194,209.194077 
	C411.839081,226.244675 404.403656,239.646515 391.001221,249.765305 
	C387.755402,252.215866 386.099579,254.589294 386.294128,258.778412 
	C387.570007,286.250397 386.019165,313.734192 386.471313,341.217133 
	C386.871429,365.539520 386.806702,389.869446 386.970642,414.195923 
	C387.019318,421.420074 387.038055,421.534637 394.319550,422.648895 
	C432.006287,428.415894 469.716522,434.030487 507.390717,439.877655 
	C530.574280,443.475861 553.703735,447.422119 576.867126,451.151978 
	C582.617188,452.077942 588.411072,452.729156 594.172302,453.590637 
	C596.610291,453.955200 598.814514,453.202301 600.980347,452.383087 
	C629.496643,441.596497 655.025269,425.768768 678.178589,406.080475 
	C686.497925,399.006195 692.812439,390.440887 693.424988,378.964233 
	C693.808289,371.782349 692.350342,364.689392 691.395447,357.617004 
	C684.815918,308.883606 700.607178,268.337830 736.535095,235.532120 
	C767.382751,207.365128 804.487183,194.643570 845.768799,197.201340 
	C896.494690,200.344208 937.843628,221.702347 960.679626,268.988068 
	C983.808472,316.880341 975.499023,362.666107 943.562012,403.953430 
	C918.845093,435.906769 884.991028,453.603455 845.573975,460.974243 
	C831.252991,463.652161 816.739075,463.307648 802.246643,463.427582 
	C782.887573,463.587799 764.200256,467.146545 746.453369,475.203583 
	C725.306824,484.804047 706.648743,498.104675 689.324707,513.378967 
	C683.635681,518.394897 684.191162,525.333618 690.227234,529.508789 
	C705.581604,540.129517 720.957336,550.687805 738.446228,557.682556 
	C755.010681,564.307617 772.052246,568.148682 790.000061,568.026367 
	C805.147888,567.923096 820.284851,566.216553 835.444885,567.699158 
	C885.669434,572.610901 927.090515,593.430115 954.660583,636.723938 
	C983.376709,681.817444 978.505859,740.585083 944.067139,781.735291 
	C920.422302,809.988037 889.662415,824.905701 853.505615,829.402588 
	C818.177429,833.796387 785.078735,826.894653 754.907532,808.091675 
	C721.486633,787.263489 700.196960,757.412659 692.095703,718.674377 
	C688.756775,702.708496 689.066895,686.517212 692.096436,670.537048 
	C694.916931,655.659851 690.171570,644.211182 678.595032,634.845703 
	C663.455261,622.597595 646.628784,613.179199 629.257507,604.656799 
	C621.190002,600.698853 612.852478,597.291931 604.645264,593.617554 
	C601.160889,592.057678 597.595581,591.985168 593.884338,592.653687 
	C542.613525,601.888489 491.328766,611.042236 439.928802,619.540588 
	C423.677399,622.227661 407.497772,625.353760 391.232056,627.944824 
	C387.368195,628.560303 386.313263,630.109436 386.327820,633.755310 
	C386.398224,651.413757 386.984558,669.061829 386.820038,686.729675 
	C386.544037,716.369568 387.175751,746.018188 386.876312,775.657593 
	C386.443848,818.466980 372.941620,856.332031 341.403137,886.183716 
	C309.972473,915.933411 272.187469,928.909607 228.924484,925.466675 
	C201.349258,923.272278 176.777679,913.704163 155.873566,895.359314 
	C132.866470,875.169128 120.740730,849.278748 116.758842,819.330933 
	C114.037247,798.861877 115.817490,778.428101 118.288437,758.067810 
	C120.953911,736.104675 123.782562,714.160156 126.743797,692.234985 
	C127.668068,685.391663 128.049408,678.410156 130.155472,671.695374 
	C133.814667,671.773010 133.791428,674.660400 134.556046,676.595520 
	C142.815353,697.498596 150.764542,718.526917 159.239609,739.341370 
	C166.021210,755.996765 173.387177,772.414612 181.500885,788.481506 
	C182.595352,790.648926 184.142715,792.706909 184.036438,796.633972 
	C171.730652,792.507385 162.426407,784.267822 151.294205,778.741516 
	C151.294205,785.615723 151.027908,792.340515 151.345581,799.037598 
	C152.199463,817.038879 155.634476,834.412109 165.246994,850.027527 
	C179.227066,872.737915 200.143829,884.750671 226.037323,888.554321 
	C279.606964,896.423401 330.466766,862.865295 344.954681,810.646484 
	C348.151672,799.123535 349.593384,787.493164 349.615417,775.647949 
	C349.698181,731.150391 349.660645,686.652649 349.661011,642.154968 
	C349.661072,634.743835 349.521606,634.787842 342.453339,636.018616 
	C310.796112,641.530884 279.174500,647.711487 246.798843,646.147827 
	C225.283966,645.108704 203.893585,643.035095 184.441422,632.407837 
	C179.439438,629.675110 174.726334,626.541870 170.929977,622.237488 
	C164.330612,614.755005 166.021423,605.611084 175.323654,601.927490 
	C188.165833,596.842102 201.263412,592.376770 214.352676,587.944336 
	C287.380585,563.215027 360.433929,538.560730 433.489044,513.911804 
	C471.356964,501.135101 509.248718,488.429047 547.119568,475.661011 
	C548.975952,475.035126 551.048889,474.790710 553.182190,472.453857 
	C546.537415,471.384247 540.453064,470.379181 534.360229,469.428406 
	C501.318542,464.272339 468.276337,459.119385 435.230896,453.987244 
	C420.936951,451.767303 406.632782,449.613373 392.337891,447.399689 
	C388.563751,446.815186 386.819244,448.062256 386.851807,452.167877 
	C386.965454,466.497742 386.926392,480.830444 386.748901,495.159607 
	C386.713898,497.985413 388.329346,498.406525 390.330688,498.982910 
	C398.006256,501.193390 405.661560,503.474213 413.332764,505.700012 
	C414.755219,506.112762 416.297363,506.206909 418.204132,508.408691 
	C395.328583,516.257507 372.925720,523.944092 349.650452,531.930054 
	C349.650452,526.916077 349.361694,522.669006 349.727295,518.479126 
	C350.137360,513.779297 348.639008,511.474854 343.846344,509.964691 
	C301.451569,496.606323 259.136627,482.993896 216.828583,469.361847 
	C203.835571,465.175354 190.890213,460.829224 178.008011,456.313721 
	C165.107452,451.791687 163.307007,441.724579 173.426407,432.426178 
	C189.837860,417.346191 209.998520,411.186920 231.354553,407.738678 
	C255.321594,403.868805 279.165497,405.763031 302.971619,409.200317 
	C317.128021,411.244293 331.260101,413.456207 345.408875,415.553741 
	C346.515808,415.717834 347.668182,415.575317 348.913116,415.575317 
	C350.201569,411.029388 349.458496,406.705444 349.466827,402.433594 
	C349.560333,354.436584 349.587128,306.439392 349.751434,258.442657 
	C349.763428,254.939438 348.749451,252.756470 345.841400,250.589188 
	C335.242889,242.690430 327.457336,232.859985 325.553192,219.177658 
	C322.885437,200.008347 333.505707,180.878845 351.657227,173.819046 
	C356.201050,172.051788 357.084930,169.641632 357.093353,165.364090 
	C357.197693,112.378937 357.439911,59.394058 357.652405,6.409134 
	C357.658417,4.910559 357.728516,3.412242 357.884399,1.456903 
	C364.021149,1.000000 370.042297,1.000000 376.531738,1.000000 
M501.701569,516.324585 
	C402.419861,549.640015 303.138184,582.955505 202.688309,616.662964 
	C225.672211,622.170471 247.737289,622.880005 269.908813,621.444824 
	C298.012024,619.625732 325.641479,614.292114 353.348999,609.613831 
	C396.831177,602.271973 440.307037,594.890320 483.758301,587.368042 
	C527.040588,579.874939 570.297058,572.231445 613.547363,564.555542 
	C624.458801,562.619019 634.817078,559.539001 643.251587,551.496582 
	C655.497742,539.819580 660.647705,524.929016 663.423950,508.952698 
	C664.284851,503.998505 666.483704,500.267578 669.962402,497.000458 
	C677.626343,489.802521 685.966980,483.438141 694.292603,477.037079 
	C728.764404,450.533691 767.319458,436.306366 811.172607,437.720490 
	C820.847290,438.032471 830.491882,437.482483 840.034363,435.808868 
	C880.265320,428.753052 912.497070,409.206696 932.984619,373.331177 
	C950.613281,342.461578 953.423828,309.884308 936.441833,277.813080 
	C918.894897,244.674744 889.793152,227.302490 853.037476,223.212936 
	C808.635315,218.272629 771.306335,232.936813 742.073669,266.769531 
	C719.821655,292.523071 712.593018,322.843781 717.208130,356.265045 
	C717.935364,361.531525 718.944763,366.789886 719.215820,372.083130 
	C720.288269,393.023529 711.979980,410.188690 696.662476,423.839172 
	C677.256836,441.132751 655.436401,454.991638 631.618103,465.336243 
	C610.219482,474.629974 587.577759,480.576477 565.519470,488.096436 
	C558.427917,490.514038 554.249817,494.738464 552.377258,501.721313 
	C550.825500,507.508087 549.363831,513.326416 547.564148,519.036804 
	C546.271973,523.136963 544.033447,527.452881 539.150879,526.867676 
	C534.088318,526.260864 534.453247,521.051208 533.855469,517.254761 
	C533.298279,513.715881 533.837219,509.988464 531.844971,506.301636 
	C521.945435,509.600037 512.202271,512.846313 501.701569,516.324585 
M935.694275,655.782532 
	C907.654297,609.060730 864.889832,590.065186 812.216309,593.006226 
	C770.862183,595.315247 732.809631,587.439209 697.911011,565.033875 
	C690.383545,560.201172 682.936462,555.243408 675.008240,550.052429 
	C666.374695,564.121704 655.179626,574.987610 639.886658,582.232117 
	C642.262573,583.428894 643.985535,584.319214 645.727539,585.170715 
	C663.874023,594.041809 681.611938,603.580017 697.062683,616.817383 
	C714.235168,631.530029 721.596680,649.862671 717.741028,672.447327 
	C713.244507,698.785706 716.202026,724.040466 730.520386,747.032532 
	C750.940063,779.821899 780.364502,799.193848 818.909485,803.840393 
	C854.729614,808.158447 886.947510,800.083313 914.355957,775.477722 
	C947.448792,745.769165 957.269165,696.452576 935.694275,655.782532 
M292.386261,432.324524 
	C272.720886,429.695770 253.040512,428.088074 233.275146,431.342133 
	C222.676559,433.086975 212.292496,435.551422 201.488815,440.155975 
	C251.154663,455.577850 299.808563,470.685486 349.584930,486.141663 
	C349.584930,471.347534 349.587402,457.422119 349.582794,443.496704 
	C349.581879,440.735260 347.640472,440.527954 345.520905,440.215057 
	C328.099426,437.643311 310.689514,434.993073 292.386261,432.324524 
M377.764954,201.646744 
	C376.729980,206.795975 373.726685,210.156464 368.428131,210.548065 
	C360.813751,211.110825 357.566986,206.305069 356.627289,198.833466 
	C350.675354,205.149460 348.818634,211.588715 351.223389,219.122299 
	C353.784607,227.146103 360.295746,231.101883 367.229889,234.571350 
	C367.824890,234.869034 368.924744,234.623245 369.583130,234.257462 
	C377.072479,230.096298 383.428864,224.845047 385.226929,215.915405 
	C386.381134,210.183212 384.507660,205.086929 380.848969,200.642410 
	C379.806610,199.376236 378.553375,198.234726 377.764954,201.646744 
z"/>
<path fill="currentColor" opacity="1.000000" stroke="none" 
	d="
M781.445007,405.694885 
	C759.543335,394.384552 745.561523,377.035278 740.371094,353.389099 
	C735.436401,330.908478 739.469116,309.478943 752.386047,290.403809 
	C773.367615,259.419281 803.172729,243.823608 840.425903,244.079407 
	C866.452759,244.258118 889.364319,253.479477 906.899841,273.531769 
	C927.908447,297.555511 931.106079,332.801636 914.614075,361.223358 
	C896.151611,393.040802 867.827820,409.854645 831.707458,414.390167 
	C814.172485,416.591980 797.599854,413.501465 781.445007,405.694885 
M874.304382,279.194977 
	C872.410583,278.148285 870.563232,277.004852 868.615967,276.069458 
	C841.039429,262.822235 798.725830,269.513885 776.051575,301.566010 
	C765.866516,315.963440 761.633606,331.790802 766.089966,349.288940 
	C772.078857,372.805115 794.374512,390.052399 823.236084,389.471680 
	C848.663879,388.960022 869.799438,378.618561 885.598267,358.666626 
	C906.112610,332.759430 904.259583,298.622467 874.304382,279.194977 
z"/>
<path fill="currentColor" opacity="1.000000" stroke="none" 
	d="
M605.747131,497.716675 
	C618.656494,499.855377 626.333618,507.101135 628.055054,518.362854 
	C629.560181,528.209351 624.016296,538.411133 614.432312,543.431396 
	C604.993042,548.375854 593.577148,546.864685 585.850830,539.245422 
	C578.717041,532.210388 576.630249,523.519165 579.560242,514.034119 
	C582.443054,504.701752 591.166382,498.334290 600.808044,497.730835 
	C602.299072,497.637543 603.800232,497.706085 605.747131,497.716675 
z"/>
<path fill="currentColor" opacity="1.000000" stroke="none" 
	d="
M925.030029,697.326294 
	C926.233337,737.705200 898.938416,771.792480 859.609192,780.266418 
	C828.520752,786.964783 799.668762,782.187988 774.443298,762.769043 
	C745.950623,740.835022 732.705383,711.646301 741.093140,675.763245 
	C748.419983,644.418945 769.683716,625.272644 800.553284,617.271729 
	C839.541138,607.166626 885.217468,623.546631 909.354919,655.770569 
	C918.468933,667.938049 923.101379,681.903137 925.030029,697.326294 
M765.466858,685.138000 
	C763.779175,700.016663 766.013123,713.940979 774.798706,726.530640 
	C795.928467,756.809265 835.263489,764.827576 865.651245,751.741882 
	C901.628113,736.249329 910.365784,693.988220 883.612976,665.402649 
	C866.475159,647.090759 844.846313,639.221497 819.781738,640.127991 
	C796.163757,640.982239 770.447876,657.280212 765.466858,685.138000 
z"/>
</svg>